<svg width="16" height="10" viewBox="0 0 16 10" fill="none" xmlns="http://www.w3.org/2000/svg">
<path fill-rule="evenodd" clip-rule="evenodd" d="M5.93796 9.75438C5.88903 9.80117 5.82496 9.82456 5.74574 9.82456H3.11053C3.03131 9.82456 2.96607 9.80117 2.91481 9.75438C2.86355 9.7076 2.83792 9.63977 2.83792 9.55088V9.09474C2.83792 9.02456 2.8321 8.96257 2.82045 8.90877C2.8088 8.85497 2.78899 8.77427 2.76103 8.66667L0.803844 1.04561C0.771225 0.923977 0.731615 0.835088 0.685015 0.778947C0.638416 0.722807 0.570846 0.678363 0.482307 0.645614L0.174749 0.547368C0.114169 0.519298 0.0698995 0.480702 0.0419397 0.431579C0.0139799 0.382456 0 0.329825 0 0.273684C0 0.189474 0.0279598 0.122807 0.0838794 0.0736842C0.139799 0.0245614 0.223678 0 0.335518 0H4.3827C4.4992 0 4.58541 0.0245614 4.64133 0.0736842C4.69725 0.122807 4.72521 0.189474 4.72521 0.273684C4.72521 0.4 4.6623 0.48421 4.53648 0.526316L4.173 0.610526C4.0798 0.638596 4.02155 0.695906 3.99825 0.782456L3.99104 0.816173C3.97779 0.897789 3.98952 1 4.02621 1.12281L5.64938 7.61629L7.03564 2.73534L6.59851 1.04561C6.55657 0.895906 6.51813 0.795322 6.48318 0.74386C6.44823 0.692398 6.39814 0.654971 6.3329 0.631579L6.03932 0.526316C5.96942 0.498246 5.91932 0.464327 5.88903 0.424561C5.85874 0.384795 5.8436 0.336842 5.8436 0.280702C5.8436 0.191813 5.87272 0.122807 5.93097 0.0736842C5.98922 0.0245614 6.07427 0 6.18611 0H10.1494C10.2659 0 10.3521 0.0245614 10.408 0.0736842C10.464 0.122807 10.4919 0.191813 10.4919 0.280702C10.4919 0.34152 10.4744 0.394152 10.4395 0.438596C10.4045 0.483041 10.3498 0.519298 10.2752 0.547368L9.96767 0.631579C9.87913 0.659649 9.82321 0.709942 9.79991 0.782456L9.79327 0.808317C9.77854 0.881785 9.78774 0.991293 9.82088 1.13684L11.4378 7.60551L12.8196 1.7193C12.8802 1.46199 12.8627 1.23743 12.7671 1.04561C12.6716 0.853801 12.4841 0.706433 12.2045 0.603509L12.0507 0.547368C11.9854 0.51462 11.9377 0.478363 11.9074 0.438596C11.8771 0.39883 11.8619 0.346199 11.8619 0.280702C11.8619 0.196491 11.8911 0.128655 11.9493 0.077193C12.0076 0.025731 12.0949 0 12.2114 0H14.4343C14.5507 0 14.6381 0.025731 14.6964 0.077193C14.7546 0.128655 14.7837 0.196491 14.7837 0.280702C14.7837 0.346199 14.7663 0.39883 14.7313 0.438596C14.6964 0.478363 14.637 0.519298 14.5531 0.561403L14.3853 0.638596C14.1803 0.727485 13.9985 0.866667 13.8401 1.05614C13.6817 1.24561 13.5652 1.49708 13.4906 1.81053L11.9388 8.55439C11.9062 8.67602 11.8841 8.7731 11.8724 8.84561C11.8608 8.91813 11.855 9.00117 11.855 9.09474V9.55088C11.855 9.63977 11.8293 9.7076 11.7781 9.75438C11.7268 9.80117 11.6639 9.82456 11.5893 9.82456H8.91918C8.83996 9.82456 8.77588 9.80117 8.72695 9.75438C8.67802 9.7076 8.65356 9.63977 8.65356 9.55088V9.09474C8.65356 9.02924 8.64774 8.96959 8.63609 8.91579L8.63045 8.89094C8.6179 8.83766 8.59764 8.76291 8.56968 8.66667L7.36591 4.01253L6.09524 8.55439C6.07194 8.63392 6.05213 8.71579 6.03582 8.8C6.01951 8.88421 6.01136 8.98246 6.01136 9.09474V9.55088C6.01136 9.63977 5.98689 9.7076 5.93796 9.75438ZM15.2344 9.78245C14.9991 9.92748 14.7323 10 14.4341 10C14.1452 10 13.8831 9.92748 13.6477 9.78245C13.4124 9.63742 13.226 9.4421 13.0885 9.19649C12.9511 8.95087 12.8823 8.68538 12.8823 8.4C12.8823 8.10994 12.9511 7.84561 13.0885 7.60701C13.226 7.36842 13.4124 7.17777 13.6477 7.03508C13.8831 6.89239 14.1452 6.82105 14.4341 6.82105C14.7323 6.82105 14.9991 6.89239 15.2344 7.03508C15.4698 7.17777 15.6562 7.36842 15.7936 7.60701C15.9311 7.84561 15.9998 8.10994 15.9998 8.4C15.9998 8.68538 15.9311 8.95087 15.7936 9.19649C15.6562 9.4421 15.4698 9.63742 15.2344 9.78245Z" fill="#00001A"/>
</svg>
